Coordinates
version=1
nRows=24
nColumns=38
inDegrees=no

Units are S.I. units (second, meters, Newtons, ...)
If the header above contains a line with 'inDegrees', this indicates whether rotational values are in degrees (yes) or radians (no).

endheader
time	pelvis_tilt	pelvis_list	pelvis_rotation	pelvis_tx	pelvis_ty	pelvis_tz	hip_flexion_r	hip_adduction_r	hip_rotation_r	knee_angle_r	ankle_angle_r	subtalar_angle_r	mtp_angle_r	hip_flexion_l	hip_adduction_l	hip_rotation_l	knee_angle_l	ankle_angle_l	subtalar_angle_l	mtp_angle_l	lumbar_extension	lumbar_bending	lumbar_rotation	arm_flex_r	arm_add_r	arm_rot_r	elbow_flex_r	pro_sup_r	wrist_flex_r	wrist_dev_r	arm_flex_l	arm_add_l	arm_rot_l	elbow_flex_l	pro_sup_l	wrist_flex_l	wrist_dev_l
0.78	0.29926	1.42107	-1.81825	0.540284	0.852264	1.06541	-0.0245877	-0.173082	0.0217114	1.12712	-0.608961	0	0	0.0115163	-0.0460924	-0.295087	0.436287	-0.188213	0	0	-0.483356	-0.0468562	0.225086	0.0269713	-0.637397	0.663803	0.920581	0.874789	0	0	0.0977321	-0.368308	0.609457	0.802409	0.880931	0	0
0.79	0.272221	1.41667	-1.79056	0.543221	0.843968	1.06739	-0.00579308	-0.166274	0.0281031	1.15689	-0.588893	0	0	-0.00672186	-0.047855	-0.300155	0.429364	-0.189503	0	0	-0.489374	-0.0419946	0.223971	0.0290498	-0.643304	0.663546	0.927111	0.873777	0	0	0.100887	-0.3672	0.614062	0.802742	0.874389	0	0
0.8	0.249765	1.41359	-1.76586	0.546343	0.835559	1.0692	0.0131817	-0.15974	0.0316198	1.18069	-0.571875	0	0	-0.0224987	-0.0495794	-0.30587	0.425813	-0.189316	0	0	-0.493534	-0.037012	0.221435	0.0317062	-0.647374	0.663732	0.930757	0.873003	0	0	0.103569	-0.366101	0.618062	0.802453	0.869859	0	0
0.81	0.229487	1.41173	-1.74295	0.549545	0.82711	1.07079	0.0329179	-0.153352	0.0340737	1.19986	-0.553818	0	0	-0.0372053	-0.0510554	-0.312478	0.422682	-0.187907	0	0	-0.496268	-0.0316623	0.218299	0.0346926	-0.651145	0.664361	0.933572	0.872403	0	0	0.105536	-0.364329	0.62065	0.801483	0.865142	0	0
0.82	0.20846	1.41002	-1.71986	0.552635	0.818626	1.07234	0.0520481	-0.146863	0.0356848	1.21357	-0.534863	0	0	-0.0525168	-0.0519687	-0.317785	0.418054	-0.185999	0	0	-0.498674	-0.0261937	0.215482	0.0383314	-0.654903	0.666189	0.935762	0.872481	0	0	0.107142	-0.361968	0.622198	0.799577	0.860993	0	0
0.83	0.187574	1.40817	-1.69715	0.555681	0.810151	1.07394	0.0700911	-0.14015	0.0368004	1.22226	-0.514314	0	0	-0.0687379	-0.0521081	-0.320742	0.410707	-0.184632	0	0	-0.501311	-0.0207646	0.212855	0.0426027	-0.658452	0.668656	0.937159	0.872631	0	0	0.108958	-0.359189	0.623626	0.796782	0.858298	0	0
0.84	0.166012	1.40666	-1.67379	0.558664	0.801771	1.07549	0.0877518	-0.132541	0.0385275	1.2268	-0.491546	0	0	-0.0846387	-0.0522385	-0.322287	0.401726	-0.184264	0	0	-0.504063	-0.0152678	0.210495	0.0473794	-0.661798	0.671425	0.937935	0.872607	0	0	0.110998	-0.355692	0.624122	0.793276	0.856146	0	0
0.85	0.145211	1.40608	-1.65121	0.561497	0.79355	1.07684	0.10566	-0.124564	0.0397836	1.22678	-0.467485	0	0	-0.0987115	-0.0528114	-0.323551	0.392859	-0.184753	0	0	-0.506372	-0.0100564	0.208279	0.0526755	-0.66483	0.67473	0.938186	0.872896	0	0	0.113258	-0.351655	0.623468	0.789305	0.853899	0	0
0.86	0.125259	1.4065	-1.6296	0.56418	0.785476	1.07799	0.123808	-0.116126	0.0413598	1.22203	-0.443621	0	0	-0.110708	-0.0539948	-0.325196	0.385196	-0.185687	0	0	-0.508095	-0.0051633	0.206094	0.0586	-0.667374	0.678311	0.93777	0.873388	0	0	0.115728	-0.347113	0.621965	0.784538	0.851484	0	0
0.87	0.104069	1.4071	-1.60723	0.566667	0.77743	1.07898	0.141233	-0.106791	0.0438242	1.21269	-0.42133	0	0	-0.122081	-0.0556107	-0.326677	0.378113	-0.186759	0	0	-0.509667	-0.00038872	0.204351	0.0646869	-0.669597	0.68189	0.936975	0.873742	0	0	0.118292	-0.342673	0.620688	0.779575	0.850432	0	0
0.88	0.0818173	1.40786	-1.58423	0.569012	0.769434	1.07982	0.157797	-0.096775	0.0470209	1.19855	-0.40076	0	0	-0.13279	-0.0575372	-0.328361	0.371972	-0.187435	0	0	-0.511209	0.00436402	0.203139	0.0708151	-0.671855	0.685579	0.936116	0.874007	0	0	0.121061	-0.338283	0.619725	0.774527	0.850945	0	0
0.89	0.0597026	1.40862	-1.56169	0.571233	0.761519	1.08051	0.173427	-0.086448	0.051226	1.17991	-0.382182	0	0	-0.143108	-0.0595139	-0.330813	0.36685	-0.187423	0	0	-0.512952	0.00868258	0.202523	0.0768053	-0.674206	0.688905	0.935558	0.874102	0	0	0.123511	-0.334394	0.617927	0.770578	0.851518	0	0
0.9	0.0376136	1.40937	-1.5394	0.573378	0.753706	1.08104	0.188031	-0.0758858	0.0563236	1.1569	-0.366236	0	0	-0.152962	-0.0614435	-0.333755	0.362898	-0.186643	0	0	-0.515009	0.0127231	0.202277	0.0826771	-0.676929	0.691876	0.935699	0.874174	0	0	0.125909	-0.330396	0.61521	0.767357	0.851632	0	0
0.91	0.015707	1.41032	-1.51744	0.575445	0.745967	1.08141	0.201721	-0.0651723	0.0621332	1.12957	-0.353888	0	0	-0.162236	-0.0633036	-0.336293	0.359788	-0.185254	0	0	-0.517147	0.0166406	0.202274	0.0883386	-0.679962	0.694385	0.936461	0.874222	0	0	0.128535	-0.326548	0.612759	0.764453	0.85157	0	0
0.92	-0.00551456	1.41136	-1.49605	0.577453	0.738304	1.08165	0.214086	-0.0544893	0.0689433	1.09814	-0.342709	0	0	-0.170823	-0.065143	-0.338321	0.357362	-0.183433	0	0	-0.519547	0.0204622	0.20239	0.0940224	-0.6832	0.696889	0.937542	0.874277	0	0	0.131569	-0.322729	0.610501	0.761527	0.85195	0	0
0.93	-0.0252064	1.41244	-1.47618	0.579354	0.730691	1.08177	0.225137	-0.0440371	0.0773161	1.06376	-0.332334	0	0	-0.178839	-0.0668477	-0.340229	0.355343	-0.181477	0	0	-0.522202	0.0238667	0.202633	0.0995307	-0.68637	0.699032	0.938793	0.874032	0	0	0.134794	-0.319007	0.608115	0.758552	0.852652	0	0
0.94	-0.0450219	1.41345	-1.45619	0.581106	0.723144	1.08181	0.234339	-0.0334456	0.08807	1.02568	-0.319798	0	0	-0.186471	-0.0688887	-0.3419	0.353738	-0.178822	0	0	-0.525413	0.0271101	0.203091	0.105243	-0.689489	0.701364	0.940076	0.873609	0	0	0.138349	-0.315258	0.605412	0.755308	0.854418	0	0
0.95	-0.0604441	1.41389	-1.43927	0.58284	0.715794	1.08171	0.241756	-0.0243016	0.0982636	0.986721	-0.306631	0	0	-0.193708	-0.0706468	-0.341551	0.353424	-0.175585	0	0	-0.529613	0.0299069	0.202381	0.11105	-0.692384	0.70357	0.94181	0.872514	0	0	0.142169	-0.312549	0.602737	0.753447	0.857499	0	0
0.96	-0.072755	1.41326	-1.42333	0.584662	0.708697	1.08157	0.24627	-0.0164193	0.106783	0.944304	-0.295184	0	0	-0.200956	-0.0724228	-0.337916	0.354155	-0.171965	0	0	-0.535391	0.0330648	0.199954	0.117115	-0.695411	0.705658	0.944502	0.871062	0	0	0.14626	-0.310825	0.599756	0.753475	0.859597	0	0
0.97	-0.0823823	1.41404	-1.41117	0.586328	0.701291	1.08117	0.250959	-0.00985564	0.117066	0.900661	-0.285565	0	0	-0.207587	-0.0733197	-0.336075	0.354303	-0.168512	0	0	-0.539321	0.035108	0.198008	0.122385	-0.69752	0.706884	0.94643	0.868922	0	0	0.149323	-0.309341	0.596443	0.75347	0.861001	0	0
0.98	-0.0901419	1.41598	-1.40174	0.587869	0.693609	1.08055	0.255572	-0.00427956	0.129368	0.855996	-0.276656	0	0	-0.213866	-0.0735432	-0.335731	0.353819	-0.164962	0	0	-0.541522	0.0362636	0.196554	0.127014	-0.69891	0.707848	0.947684	0.866242	0	0	0.151793	-0.308129	0.59342	0.753177	0.863121	0	0
0.99	-0.0959869	1.4185	-1.39416	0.589372	0.685781	1.07978	0.259323	3.6241e-05	0.14149	0.809777	-0.268032	0	0	-0.219854	-0.0732537	-0.335124	0.352974	-0.161244	0	0	-0.542733	0.037035	0.195081	0.130957	-0.700229	0.709242	0.949108	0.864591	0	0	0.153792	-0.306896	0.589815	0.752965	0.865101	0	0
1	-0.100039	1.42099	-1.38776	0.590934	0.67782	1.07891	0.261355	0.00316196	0.151969	0.760991	-0.259626	0	0	-0.226018	-0.0727749	-0.334108	0.35205	-0.157328	0	0	-0.543655	0.0379573	0.19298	0.134544	-0.701449	0.710675	0.950537	0.864319	0	0	0.155274	-0.305724	0.585575	0.753087	0.867636	0	0
1.01	-0.102403	1.42393	-1.38244	0.592546	0.669692	1.0779	0.262382	0.00531638	0.160838	0.709586	-0.252329	0	0	-0.231739	-0.0722114	-0.332976	0.351416	-0.153587	0	0	-0.543783	0.0389211	0.190225	0.137117	-0.702103	0.710734	0.952037	0.863709	0	0	0.156291	-0.304762	0.581254	0.753261	0.870263	0	0
